<svg xmlns="http://www.w3.org/2000/svg" viewBox="0 0 16.75 19"><defs><style>.cls-1{fill:none;stroke:#707070;}</style></defs><g id="Layer_2" data-name="Layer 2"><g id="Layer_1-2" data-name="Layer 1"><path id="Icon_awesome-calendar-alt" data-name="Icon awesome-calendar-alt" class="cls-1" d="M.5,16.82A1.69,1.69,0,0,0,2.19,18.5H14.56a1.69,1.69,0,0,0,1.69-1.69V7.25H.5Zm11.25-6.9a.42.42,0,0,1,.42-.42h1.41a.42.42,0,0,1,.42.42v1.41a.42.42,0,0,1-.42.42H12.17a.42.42,0,0,1-.42-.42Zm0,4.5a.42.42,0,0,1,.42-.42h1.41a.42.42,0,0,1,.42.42v1.41a.42.42,0,0,1-.42.42H12.17a.42.42,0,0,1-.42-.42Zm-4.5-4.5a.42.42,0,0,1,.42-.42H9.08a.42.42,0,0,1,.42.42v1.41a.42.42,0,0,1-.42.42H7.67a.42.42,0,0,1-.42-.42Zm0,4.5A.42.42,0,0,1,7.67,14H9.08a.42.42,0,0,1,.42.42v1.41a.42.42,0,0,1-.42.42H7.67a.42.42,0,0,1-.42-.42Zm-4.5-4.5a.42.42,0,0,1,.42-.42H4.58A.42.42,0,0,1,5,9.92v1.41a.42.42,0,0,1-.42.42H3.17a.42.42,0,0,1-.42-.42Zm0,4.5A.42.42,0,0,1,3.17,14H4.58a.42.42,0,0,1,.42.42v1.41a.42.42,0,0,1-.42.42H3.17a.42.42,0,0,1-.42-.42ZM14.56,2.75H12.88V1.06A.57.57,0,0,0,12.31.5H11.19a.56.56,0,0,0-.56.56V2.75H6.13V1.06A.57.57,0,0,0,5.56.5H4.44a.56.56,0,0,0-.56.56V2.75H2.19A1.69,1.69,0,0,0,.5,4.44h0V6.13H16.25V4.44A1.69,1.69,0,0,0,14.56,2.75Z"/></g></g></svg>